<svg height="480pt" viewBox="0 -16 480 480" width="480pt" xmlns="http://www.w3.org/2000/svg"><path d="m147.441406 200 18.238282-30.398438-57.519532-50.320312-57.679687-14.402344-34.480469 34.402344v39.199219l57.441406 21.519531zm0 0"/><path d="m240 343.839844 64-14.238282v-81.601562h-128v81.601562zm0 0"/><path d="m152 384c-17.671875 0-32 14.328125-32 32s14.328125 32 32 32 32-14.328125 32-32-14.328125-32-32-32zm8 40h-16v-16h16zm0 0"/><path d="m320 248v88c-.027344 3.738281-2.601562 6.972656-6.238281 7.839844l-72 16c-1.164063.214844-2.359375.214844-3.523438 0l-72-16c-3.636719-.867188-6.210937-4.101563-6.238281-7.839844v-88h-102.800781l21.761719 160h25.757812c3.882812-23.085938 23.871094-39.992188 47.28125-39.992188s43.398438 16.90625 47.28125 39.992188h81.4375c3.882812-23.085938 23.871094-39.992188 47.28125-39.992188s43.398438 16.90625 47.28125 39.992188h25.757812l21.761719-160zm0 0"/><path d="m366 85.28125 45.121094 19.359375c2.953125 1.25 4.875 4.148437 4.878906 7.359375v64c.007812 1.734375-.554688 3.417969-1.601562 4.800781l-14.398438 19.199219h28.71875l35.28125-35.28125v-67.597656l-14-49.121094h-60.238281l1.839843 5.441406c.929688 2.890625.191407 6.058594-1.921874 8.238282zm0 0"/><path d="m328 384c-17.671875 0-32 14.328125-32 32s14.328125 32 32 32 32-14.328125 32-32-14.328125-32-32-32zm8 40h-16v-16h16zm0 0"/><path d="m440 224c0-4.417969-3.582031-8-8-8h-384c-4.417969 0-8 3.582031-8 8s3.582031 8 8 8h384c4.417969 0 8-3.582031 8-8zm0 0"/><path d="m113.921875 104.238281c1.25.292969 2.40625.898438 3.359375 1.761719l33.117188 29.039062 36.640624-29.277343 43.761719-36.5625-20.722656-69.199219h-33.117187l-60.160157 15.039062-36.242187 50.800782 6.320312 31.601562zm0 0"/><path d="m166.160156 200h79.039063l31.519531-25.199219-59.839844-73.121093-19.757812 16.480468-34.480469 27.519532 18.640625 16.320312c2.882812 2.539062 3.554688 6.773438 1.597656 10.078125zm0 0"/><path d="m270.800781 200h109.199219l20-26.640625v-56.078125l-46.160156-19.761719-36.160156 36.160157c-.886719.859374-1.953126 1.515624-3.121094 1.921874l-38.71875 12.878907 18.320312 22.480469c1.34375 1.652343 1.96875 3.769531 1.746094 5.886718-.226562 2.117188-1.285156 4.058594-2.945312 5.390625zm0 0"/><path d="m245.121094 78.160156-15.921875 13.28125 35.761719 43.839844 42.71875-14.242188 67.199218-67.199218-13.277344-39.761719-35.121093-14.078125h-45.359375l-50.082032 14.320312 16.640626 55.359376c.90625 3.085937-.097657 6.414062-2.558594 8.480468zm0 0"/><path d="m24 376v-32h8v-16h-32v16h8v40c0 4.417969 3.582031 8 8 8h44.640625l-2.160156-16zm0 0"/><path d="m480 328h-32v16h8v32h-34.398438l-2.242187 16h44.640625c4.417969 0 8-3.582031 8-8v-40h8zm0 0"/></svg>