<?xml version="1.0" encoding="UTF-8"?>
<svg width="10px" height="12px" viewBox="0 0 10 12" version="1.1" xmlns="http://www.w3.org/2000/svg" xmlns:xlink="http://www.w3.org/1999/xlink">
    <!-- Generator: Sketch 55.2 (78181) - https://sketchapp.com -->
    <title>Shape</title>
    <desc>Created with Sketch.</desc>
    <g id="Page-1" stroke="none" stroke-width="1" fill="none" fill-rule="evenodd">
        <g id="Artboard" transform="translate(-667.000000, -92.000000)" fill="#333333">
            <g id="Group-5" transform="translate(567.000000, 82.000000)">
                <path d="M105,21.7647059 C105.647059,21.7647059 106.176471,21.2352941 106.176471,20.5882353 L103.823529,20.5882353 C103.823529,21.2352941 104.352941,21.7647059 105,21.7647059 L105,21.7647059 Z M108.823529,15 C108.823529,13.1941176 107.570588,11.6823529 105.882353,11.2823529 L105.882353,10.8823529 C105.882353,10.3941176 105.488235,10 105,10 C104.511765,10 104.117647,10.3941176 104.117647,10.8823529 L104.117647,11.2823529 C102.429412,11.6823529 101.176471,13.1941176 101.176471,15 L101.176471,18.2352941 L100,19.4117647 L100,20 L110,20 L110,19.4117647 L108.823529,18.2352941 L108.823529,15 Z M107.647059,18.8235294 L102.352941,18.8235294 L102.352941,15 C102.352941,13.5352941 103.535294,12.3529412 105,12.3529412 C106.464706,12.3529412 107.647059,13.5352941 107.647059,15 L107.647059,18.8235294 L107.647059,18.8235294 Z" id="Shape"></path>
            </g>
        </g>
    </g>
</svg>