<?xml version="1.0" encoding="UTF-8"?>
<svg width="12px" height="12px" viewBox="0 0 12 12" version="1.1" xmlns="http://www.w3.org/2000/svg" xmlns:xlink="http://www.w3.org/1999/xlink">
    <!-- Generator: Sketch 55.2 (78181) - https://sketchapp.com -->
    <title>Shape</title>
    <desc>Created with Sketch.</desc>
    <g id="Design" stroke="none" stroke-width="1" fill="none" fill-rule="evenodd">
        <g id="Crypto-Dashboard" transform="translate(-257.000000, -30.000000)" fill="#CED2D6" fill-rule="nonzero">
            <g id="Nav">
                <g id="Search" transform="translate(240.000000, 16.000000)">
                    <path d="M25.5763293,21.5471698 L25.0343053,21.5471698 L24.8421955,21.3619211 C25.5145798,20.5797599 25.9193825,19.5643225 25.9193825,18.4596913 C25.9193825,15.9965695 23.922813,14 21.4596913,14 C18.9965695,14 17,15.9965695 17,18.4596913 C17,20.922813 18.9965695,22.9193825 21.4596913,22.9193825 C22.5643225,22.9193825 23.5797599,22.5145798 24.3619211,21.8421955 L24.5471698,22.0343053 L24.5471698,22.5763293 L27.9777015,26 L29,24.9777015 L25.5763293,21.5471698 Z M21.4596913,21.5471698 C19.7512864,21.5471698 18.3722127,20.1680961 18.3722127,18.4596913 C18.3722127,16.7512864 19.7512864,15.3722127 21.4596913,15.3722127 C23.1680961,15.3722127 24.5471698,16.7512864 24.5471698,18.4596913 C24.5471698,20.1680961 23.1680961,21.5471698 21.4596913,21.5471698 Z" id="Shape"></path>
                </g>
            </g>
        </g>
    </g>
</svg>